<?xml version="1.0" standalone="no"?><!DOCTYPE svg PUBLIC "-//W3C//DTD SVG 1.1//EN" "http://www.w3.org/Graphics/SVG/1.1/DTD/svg11.dtd"><svg class="icon" height="512" viewBox="0 0 1024 1024" version="1.1" xmlns="http://www.w3.org/2000/svg"><path d="M324.817342 325.031724l373.328707 0c20.634969 0 37.33021-16.723893 37.33021-37.335327 0-20.630876-16.695241-37.331233-37.33021-37.331233L324.817342 250.365164c-20.629853 0-37.329187 16.700357-37.329187 37.331233C287.487132 308.307831 304.187489 325.031724 324.817342 325.031724zM324.817342 474.857055l373.328707 0c20.634969 0 37.33021-16.723893 37.33021-37.335327 0-20.6319-16.695241-37.331233-37.33021-37.331233L324.817342 400.190495c-20.629853 0-37.329187 16.700357-37.329187 37.331233C287.487132 458.133162 304.187489 474.857055 324.817342 474.857055zM862.801133 85.850274c-14.57188-14.570857-33.669844-21.856797-52.767807-21.856797L213.378274 63.993476c-19.097964 0-38.195927 7.28594-52.765761 21.856797-14.57188 14.570857-21.85782 33.668821-21.85782 52.766784l0 746.103806c0 19.10001 7.28594 38.19695 21.85782 52.767807 14.569834 14.570857 33.667797 21.856797 52.765761 21.856797L439.155437 959.345468c0.920976 0.066515 1.847068 0.113587 2.786463 0.113587 20.637016 0 37.369096-16.731056 37.369096-37.369096s-16.731056-37.371142-37.369096-37.371142L247.222079 884.718817c-8.661264 0-17.322527-3.303232-23.932062-9.911744-6.607488-6.608511-9.911744-15.268752-9.911744-23.931039L213.378274 172.45984c0-8.662287 3.304256-17.323551 9.911744-23.931039 6.608511-6.608511 15.269775-9.912767 23.932062-9.912767l528.968463 0c8.661264 0 17.321504 3.304256 23.930015 9.912767 6.609535 6.607488 9.91379 15.268752 9.91379 23.931039l0 344.17369c0 20.60734 16.705474 37.311791 37.312814 37.311791 20.606317 0 37.310767-16.70445 37.310767-37.311791L884.65793 138.617058C884.656907 119.519094 877.37199 100.42113 862.801133 85.850274zM685.750741 561.530067c-109.87034 0-198.907189 89.038896-198.907189 198.907189 0 109.87034 89.036849 198.908212 198.907189 198.908212 109.845781 0 198.906166-89.037872 198.906166-198.908212C884.656907 650.563846 795.596522 561.530067 685.750741 561.530067zM784.815991 785.560446l-73.945129 0 0 73.945129c0 13.981433-11.238972 25.293059-25.121144 25.293059-13.869892 0-25.12319-11.311627-25.12319-25.293059l0-73.945129-73.946153 0c-13.978363 0-25.292036-11.253298-25.292036-25.124214 0-13.881149 11.313673-25.122167 25.292036-25.122167l73.946153 0 0-73.944106c0-13.979386 11.253298-25.294083 25.12319-25.294083 13.881149 0 25.121144 11.314697 25.121144 25.294083l0 73.944106 73.945129 0c13.981433 0 25.294083 11.239995 25.294083 25.122167C810.110073 774.307148 798.797423 785.560446 784.815991 785.560446z" /></svg>